<svg width="148.9" height="25.42" viewBox="116.9 0 148.9 25.42" fill="none" xmlns="http://www.w3.org/2000/svg" xmlns:c2pa="http://c2pa.org/manifest"><metadata><c2pa:manifest>AAAWgmp1bWIAAAAeanVtZGMycGEAEQAQgAAAqgA4m3EDYzJwYQAAABZcanVtYgAAAEdqdW1kYzJtYQARABCAAACqADibcQN1cm46YzJwYTo4NDVkZGY5NS01NWU0LTRjOWQtOTY3YS1mMGVjY2Y3NDUxYmYAAAADl2p1bWIAAAApanVtZGMyYXMAEQAQgAAAqgA4m3EDYzJwYS5hc3NlcnRpb25zAAAAALxqdW1iAAAARGp1bWRjYm9yABEAEIAAAKoAOJtxE2MycGEuaW5ncmVkaWVudC52MwAAAAAYYzJzaO+r2HVGD+3T7NYwnigBEioAAABwY2JvcqNpZGM6Zm9ybWF0bWltYWdlL3N2Zyt4bWxqaW5zdGFuY2VJRHgseG1wOmlpZDpmZDhlZTJjZS0zNjBmLTQ2YWItOGY1Yy0yODFkMGQ5YTU2N2RscmVsYXRpb25zaGlwaHBhcmVudE9mAAAB4mp1bWIAAABBanVtZGNib3IAEQAQgAAAqgA4m3ETYzJwYS5hY3Rpb25zLnYyAAAAABhjMnNo5tIiEqdYAXaA/rmyifLg1gAAAZljYm9yomdhY3Rpb25zgqJmYWN0aW9ua2MycGEub3BlbmVkanBhcmFtZXRlcnOha2luZ3JlZGllbnRzgaJjdXJseC1zZWxmI2p1bWJmPWMycGEuYXNzZXJ0aW9ucy9jMnBhLmluZ3JlZGllbnQudjNkaGFzaFggR/1aWd1nD4mPeSeXGMBa+b1flDxC5FBgZX4HUSQEBKqkZmFjdGlvbngdY29tLmFudGhyb3BpYy5jbGF1ZGUucHJvdmlkZWRqcGFyYW1ldGVyc6F4H2NvbS5hbnRocm9waWMub3JpZ2luLWNvbmZpZGVuY2VndW5rbm93bmtkZXNjcmlwdGlvbnhmQ2xhdWRlIHByb3ZpZGVkIHRoaXMgZmlsZSBhdCB0aGUgcmVxdWVzdCBvZiBhIHVzZXIgYW5kIG1heSBoYXZlIGNyZWF0ZWQgb3IgbW9kaWZpZWQgdGhlIGZpbGUgY29udGVudHMubXNvZnR3YXJlQWdlbnShZG5hbWVmQ2xhdWRlcmFsbEFjdGlvbnNJbmNsdWRlZPUAAADIanVtYgAAAEBqdW1kY2JvcgARABCAAACqADibcRNjMnBhLmhhc2guZGF0YQAAAAAYYzJzaFGv9Zo7M6+Kvxe5I23DAmcAAACAY2JvcqVjYWxnZnNoYTI1NmNwYWRNAAAAAAAAAAAAAAAAAGRoYXNoWCA7bQWrLAuxqN3/oCd8ECL2RPEZl4KOZcvFpwJ4RYSaxmRuYW1lbmp1bWJmIG1hbmlmZXN0amV4Y2x1c2lvbnOBomVzdGFydBiuZmxlbmd0aBkeBAAAAj5qdW1iAAAAJ2p1bWRjMmNsABEAEIAAAKoAOJtxA2MycGEuY2xhaW0udjIAAAACD2Nib3KlY2FsZ2ZzaGEyNTZpc2lnbmF0dXJleE1zZWxmI2p1bWJmPS9jMnBhL3VybjpjMnBhOjg0NWRkZjk1LTU1ZTQtNGM5ZC05NjdhLWYwZWNjZjc0NTFiZi9jMnBhLnNpZ25hdHVyZWppbnN0YW5jZUlEeCx4bXA6aWlkOjljMmZiNDU1LWQ3N2MtNDYzOS05OTc2LTBkNTk2YWNjYmE2ZnJjcmVhdGVkX2Fzc2VydGlvbnODomN1cmx4LXNlbGYjanVtYmY9YzJwYS5hc3NlcnRpb25zL2MycGEuaW5ncmVkaWVudC52M2RoYXNoWCBH/VpZ3WcPiY95J5cYwFr5vV+UPELkUGBlfgdRJAQEqqJjdXJseCpzZWxmI2p1bWJmPWMycGEuYXNzZXJ0aW9ucy9jMnBhLmFjdGlvbnMudjJkaGFzaFggW2+p1XVAJEnWDjObtc68uRZ8kJsE/MGy3Wg9U/QeptKiY3VybHgpc2VsZiNqdW1iZj1jMnBhLmFzc2VydGlvbnMvYzJwYS5oYXNoLmRhdGFkaGFzaFggUWtbC674d1IVJSDqsqITeBGz4I2sYg2TXDKUeGSBagJ0Y2xhaW1fZ2VuZXJhdG9yX2luZm+jZG5hbWVvQW50aHJvcGljIEZpbGVzZ3ZlcnNpb25lMS4wLjBrc3BlY1ZlcnNpb25lMi40LjAAABA4anVtYgAAAChqdW1kYzJjcwARABCAAACqADibcQNjMnBhLnNpZ25hdHVyZQAAABAIY2JvctKEWQISogEmGCFZAgowggIGMIIBjaADAgECAhRA5aAK7sI50L64g/oGQgU9Z1UTADAKBggqhkjOPQQDAzBJMRcwFQYDVQQKEw5BbnRocm9waWMsIFBCQzEuMCwGA1UEAxMlQW50aHJvcGljIENvbnRlbnQgQ3JlZGVudGlhbHMgUm9vdCBDQTAeFw0yNjA4MDcxODQzNTZaFw0yODA4MDYxOTQzNTZaMEQxFzAVBgNVBAoTDkFudGhyb3BpYywgUEJDMSkwJwYDVQQDEyBBbnRocm9waWMgQ2xhdWRlIENvbnRlbnQgU2lnbmluZzBZMBMGByqGSM49AgEGCCqGSM49AwEHA0IABJh6CmvLUBgFFNU0vUKlOVtE6djd17L5SuwX0LemFisBM3dkd/3cyjxFA3Qo5S46fX0/ihY0VZ7mfb9KF703t5OjWDBWMA4GA1UdDwEB/wQEAwIHgDAVBgNVHSUEDjAMBgorBgEEAYPoXgIBMAwGA1UdEwEB/wQCMAAwHwYDVR0jBBgwFoAUzlHiBIFOZFsj+OPEz5o+nMHXXMIwCgYIKoZIzj0EAwMDZwAwZAIwMXMdFJ4BetLLVY7ORuE9noqbbAZOZn/aArXyTwFAZfKrPzxF2vPoJNf1+UCdg1XGAjBwX1zd9WGqYkqmL5SFqw1QySjr1zJfpJM9+1rdDwSPLMOPOjKuiXjoU/pUUeG9RwmhY3BhZFkNngAAAAAAAAAAAAAAAAAAAAAAAAAAAAAAAAAAAAAAAAAAAAAAAAAAAAAAAAAAAAAAAAAAAAAAAAAAAAAAAAAAAAAAAAAAAAAAAAAAAAAAAAAAAAAAAAAAAAAAAAAAAAAAAAAAAAAAAAAAAAAAAAAAAAAAAAAAAAAAAAAAAAAAAAAAAAAAAAAAAAAAAAAAAAAAAAAAAAAAAAAAAAAAAAAAAAAAAAAAAAAAAAAAAAAAAAAAAAAAAAAAAAAAAAAAAAAAAAAAAAAAAAAAAAAAAAAAAAAAAAAAAAAAAAAAAAAAAAAAAAAAAAAAAAAAAAAAAAAAAAAAAAAAAAAAAAAAAAAAAAAAAAAAAAAAAAAAAAAAAAAAAAAAAAAAAAAAAAAAAAAAAAAAAAAAAAAAAAAAAAAAAAAAAAAAAAAAAAAAAAAAAAAAAAAAAAAAAAAAAAAAAAAAAAAAAAAAAAAAAAAAAAAAAAAAAAAAAAAAAAAAAAAAAAAAAAAAAAAAAAAAAAAAAAAAAAAAAAAAAAAAAAAAAAAAAAAAAAAAAAAAAAAAAAAAAAAAAAAAAAAAAAAAAAAAAAAAAAAAAAAAAAAAAAAAAAAAAAAAAAAAAAAAAAAAAAAAAAAAAAAAAAAAAAAAAAAAAAAAAAAAAAAAAAAAAAAAAAAAAAAAAAAAAAAAAAAAAAAAAAAAAAAAAAAAAAAAAAAAAAAAAAAAAAAAAAAAAAAAAAAAAAAAAAAAAAAAAAAAAAAAAAAAAAAAAAAAAAAAAAAAAAAAAAAAAAAAAAAAAAAAAAAAAAAAAAAAAAAAAAAAAAAAAAAAAAAAAAAAAAAAAAAAAAAAAAAAAAAAAAAAAAAAAAAAAAAAAAAAAAAAAAAAAAAAAAAAAAAAAAAAAAAAAAAAAAAAAAAAAAAAAAAAAAAAAAAAAAAAAAAAAAAAAAAAAAAAAAAAAAAAAAAAAAAAAAAAAAAAAAAAAAAAAAAAAAAAAAAAAAAAAAAAAAAAAAAAAAAAAAAAAAAAAAAAAAAAAAAAAAAAAAAAAAAAAAAAAAAAAAAAAAAAAAAAAAAAAAAAAAAAAAAAAAAAAAAAAAAAAAAAAAAAAAAAAAAAAAAAAAAAAAAAAAAAAAAAAAAAAAAAAAAAAAAAAAAAAAAAAAAAAAAAAAAAAAAAAAAAAAAAAAAAAAAAAAAAAAAAAAAAAAAAAAAAAAAAAAAAAAAAAAAAAAAAAAAAAAAAAAAAAAAAAAAAAAAAAAAAAAAAAAAAAAAAAAAAAAAAAAAAAAAAAAAAAAAAAAAAAAAAAAAAAAAAAAAAAAAAAAAAAAAAAAAAAAAAAAAAAAAAAAAAAAAAAAAAAAAAAAAAAAAAAAAAAAAAAAAAAAAAAAAAAAAAAAAAAAAAAAAAAAAAAAAAAAAAAAAAAAAAAAAAAAAAAAAAAAAAAAAAAAAAAAAAAAAAAAAAAAAAAAAAAAAAAAAAAAAAAAAAAAAAAAAAAAAAAAAAAAAAAAAAAAAAAAAAAAAAAAAAAAAAAAAAAAAAAAAAAAAAAAAAAAAAAAAAAAAAAAAAAAAAAAAAAAAAAAAAAAAAAAAAAAAAAAAAAAAAAAAAAAAAAAAAAAAAAAAAAAAAAAAAAAAAAAAAAAAAAAAAAAAAAAAAAAAAAAAAAAAAAAAAAAAAAAAAAAAAAAAAAAAAAAAAAAAAAAAAAAAAAAAAAAAAAAAAAAAAAAAAAAAAAAAAAAAAAAAAAAAAAAAAAAAAAAAAAAAAAAAAAAAAAAAAAAAAAAAAAAAAAAAAAAAAAAAAAAAAAAAAAAAAAAAAAAAAAAAAAAAAAAAAAAAAAAAAAAAAAAAAAAAAAAAAAAAAAAAAAAAAAAAAAAAAAAAAAAAAAAAAAAAAAAAAAAAAAAAAAAAAAAAAAAAAAAAAAAAAAAAAAAAAAAAAAAAAAAAAAAAAAAAAAAAAAAAAAAAAAAAAAAAAAAAAAAAAAAAAAAAAAAAAAAAAAAAAAAAAAAAAAAAAAAAAAAAAAAAAAAAAAAAAAAAAAAAAAAAAAAAAAAAAAAAAAAAAAAAAAAAAAAAAAAAAAAAAAAAAAAAAAAAAAAAAAAAAAAAAAAAAAAAAAAAAAAAAAAAAAAAAAAAAAAAAAAAAAAAAAAAAAAAAAAAAAAAAAAAAAAAAAAAAAAAAAAAAAAAAAAAAAAAAAAAAAAAAAAAAAAAAAAAAAAAAAAAAAAAAAAAAAAAAAAAAAAAAAAAAAAAAAAAAAAAAAAAAAAAAAAAAAAAAAAAAAAAAAAAAAAAAAAAAAAAAAAAAAAAAAAAAAAAAAAAAAAAAAAAAAAAAAAAAAAAAAAAAAAAAAAAAAAAAAAAAAAAAAAAAAAAAAAAAAAAAAAAAAAAAAAAAAAAAAAAAAAAAAAAAAAAAAAAAAAAAAAAAAAAAAAAAAAAAAAAAAAAAAAAAAAAAAAAAAAAAAAAAAAAAAAAAAAAAAAAAAAAAAAAAAAAAAAAAAAAAAAAAAAAAAAAAAAAAAAAAAAAAAAAAAAAAAAAAAAAAAAAAAAAAAAAAAAAAAAAAAAAAAAAAAAAAAAAAAAAAAAAAAAAAAAAAAAAAAAAAAAAAAAAAAAAAAAAAAAAAAAAAAAAAAAAAAAAAAAAAAAAAAAAAAAAAAAAAAAAAAAAAAAAAAAAAAAAAAAAAAAAAAAAAAAAAAAAAAAAAAAAAAAAAAAAAAAAAAAAAAAAAAAAAAAAAAAAAAAAAAAAAAAAAAAAAAAAAAAAAAAAAAAAAAAAAAAAAAAAAAAAAAAAAAAAAAAAAAAAAAAAAAAAAAAAAAAAAAAAAAAAAAAAAAAAAAAAAAAAAAAAAAAAAAAAAAAAAAAAAAAAAAAAAAAAAAAAAAAAAAAAAAAAAAAAAAAAAAAAAAAAAAAAAAAAAAAAAAAAAAAAAAAAAAAAAAAAAAAAAAAAAAAAAAAAAAAAAAAAAAAAAAAAAAAAAAAAAAAAAAAAAAAAAAAAAAAAAAAAAAAAAAAAAAAAAAAAAAAAAAAAAAAAAAAAAAAAAAAAAAAAAAAAAAAAAAAAAAAAAAAAAAAAAAAAAAAAAAAAAAAAAAAAAAAAAAAAAAAAAAAAAAAAAAAAAAAAAAAAAAAAAAAAAAAAAAAAAAAAAAAAAAAAAAAAAAAAAAAAAAAAAAAAAAAAAAAAAAAAAAAAAAAAAAAAAAAAAAAAAAAAAAAAAAAAAAAAAAAAAAAAAAAAAAAAAAAAAAAAAAAAAAAAAAAAAAAAAAAAAAAAAAAAAAAAAAAAAAAAAAAAAAAAAAAAAAAAAAAAAAAAAAAAAAAAAAAAAAAAAAAAAAAAAAAAAAAAAAAAAAAAAAAAAAAAAAAAAAAAAAAAAAAAAAAAAAAAAAAAAAAAAAAAAAAAAAAAAAAAAAAAAAAAAAAAAAAAAAAAAAAAAAAAAAAAAAAAAAAAAAAAAAAAAAAAAAAAAAAAAAAAAAAAAAAAAAAAAAAAAAAAAAAAAAAAAAAAAAAAAAAAAAAAAAAAAAAAAAAAAAAAAAAAAAAAAAAAAAAAAAAAAAAAAAAAAAAAAAAAAAAAAAAAAAAAAAAAAAAAAAAAAAAAAAAAAAAAAAAAAAAAAAAAAAAAAAAAAAAAAAAAAAAAAAAAAAAAAAAAAAAAAAAAAAAAAAAAAAAAAAAAAAAAAAAAAAAAAAAAAAAAAAAAAAAAAAAAAAAAAAAAAAAAAAAAAAAAAAAAAAAAAAAAAAAAAAAAAAAAAAAAAAAAAAAAAAAAAAAAAAAAAAAAAAAAAAAAAAAAAAAAAAAAAAAAAAAAAAAAAAAAAAAAAAAAAAAAAAAAAAAAAAAAAAAAAAAAAAAAAAAAAAAAAAAAAAAAAAAAAAAAAAAAAAAAAAAAAAAAAAAAAAAAAAAAAAAAAAAAAAAAAAAAAAAAAAAAAAAAAAAAAAAAAAAAAAAAAAAAAAAAAAAAAAAAAAAAAAAAAAAAAAAAAAAAAAAAAAAAAAAAAAAAAAAAAAAAAAAAAAAAAAAAAAAAAAAAAAAAAAAAAAAAAAAAAAAAAAAAAAAAAAAAAAAAAAAAAAAAAAAAAAAAAAAAAAAAAAAAAAAAAAAAAAAAAAAAAAAAAAAAAAAAAAAAAAAAAAAAAAAAAAAAAAAAAAAAAAAAAAAAAAAAAAAAAAAAAAAAAAAAAAAAAAAAAAAAAAAAAAAAAAAAAAAAAAAAAAAAAAAAAAAAAAAAAAAAAAAAAAAAAAAAAAAAAAAAAAAAAAAAAAAAAAAAAAAAAAAAAAAAAAAAAAAAAAAAAAAAAAAAAAAAAAAAAAAAAAAAAAAAAAAAAAAAAAAAAAAAAAAAAAAAAAAAAAAAAAAAAAAAAAAAAAAAAAAAAAAAAAAAAAAAAAAAAAAAAAAAAAAAAAAAAAAAAAAAAAAAAAAAAAAAAAAAAAAAAAAAAAAAAAAAAAAAAAAAAAAAAAAAAAAAAAAAAAAAAAAAAAAAAAAAAAAAAAAAAAAAAAAAAAAAAAAAAAAAAAAAAAAAAAAAAAAAAAAAAAAAAAAAAAAAAAAAAAAAAAAAAAAAAAAAAAAAAAAAAAAAAAAAAAAAAAAAAAAAAAAAAAAAAAAAAAAAAAAAAAAAAAAAAAAAAAAAAAAAAAAAAAAAAAAAAAAAAAAAAAAAAAAAAAAAAAAAAAAAAAAAAAAAAAAAAAAAAAAAAAPZYQABJVdAVK2GNupqrxhlKcO2LzHYveXUclNHcZiR1HtQp99TnDsKxlV/Oz1T+y7AF7pRBUWNFDxk+jP8ZNU71D/Y=</c2pa:manifest></metadata>
<path d="M128.164 3.2518C127.436 4.10375 126.271 4.77571 125.106 4.67972C124.96 3.52779 125.531 2.30386 126.198 1.54791C126.926 0.67196 128.201 0.0479971 129.232 0C129.353 1.19993 128.88 2.37586 128.164 3.2518ZM129.22 4.90771C127.533 4.81171 126.089 5.85565 125.288 5.85565C124.475 5.85565 123.249 4.9557 121.914 4.9797C120.179 5.0037 118.565 5.97564 117.679 7.52355C115.859 10.6194 117.206 15.2031 118.965 17.7229C119.827 18.9709 120.859 20.3388 122.218 20.2908C123.504 20.2428 124.014 19.4628 125.567 19.4628C127.133 19.4628 127.582 20.2908 128.941 20.2668C130.349 20.2428 131.234 19.0189 132.096 17.7709C133.079 16.355 133.479 14.9751 133.504 14.9031C133.479 14.8791 130.785 13.8592 130.761 10.7874C130.737 8.21951 132.885 6.99558 132.982 6.92358C131.768 5.14769 129.875 4.9557 129.22 4.90771ZM138.965 1.42791V20.1348H141.901V13.7392H145.967C149.68 13.7392 152.289 11.2193 152.289 7.57155C152.289 3.92376 149.729 1.42791 146.064 1.42791H138.965ZM141.901 3.87577H145.287C147.836 3.87577 149.292 5.21969 149.292 7.58355C149.292 9.9474 147.836 11.3033 145.275 11.3033H141.901V3.87577ZM157.653 20.2788C159.498 20.2788 161.209 19.3548 161.986 17.8909H162.046V20.1348H164.765V10.8233C164.765 8.12351 162.58 6.38362 159.219 6.38362C156.1 6.38362 153.794 8.14751 153.709 10.5714H156.355C156.573 9.41943 157.653 8.66348 159.134 8.66348C160.93 8.66348 161.937 9.49143 161.937 11.0153V12.0473L158.272 12.2633C154.862 12.4673 153.018 13.8472 153.018 16.247C153.018 18.6709 154.923 20.2788 157.653 20.2788ZM158.442 18.0589C156.877 18.0589 155.881 17.315 155.881 16.175C155.881 14.9991 156.84 14.3151 158.673 14.2071L161.937 14.0032V15.0591C161.937 16.811 160.432 18.0589 158.442 18.0589ZM168.393 25.2225C171.257 25.2225 172.604 24.1426 173.781 20.8667L178.939 6.56361H175.954L172.495 17.6149H172.434L168.976 6.56361H165.905L170.881 20.1828L170.614 21.0107C170.165 22.4147 169.437 22.9546 168.138 22.9546C167.908 22.9546 167.459 22.9306 167.277 22.9066V25.1505C167.447 25.1985 168.175 25.2225 168.393 25.2225Z" fill="white"></path>
<path d="M223.322 11.2214C223.322 10.5232 223.244 9.82493 223.165 9.12671H213.365V13.0833H218.932C218.697 14.3246 217.991 15.4883 216.893 16.1865V18.7467H220.265C222.225 16.9624 223.322 14.3246 223.322 11.2214Z" fill="white"></path>
<path d="M232.651 12.7728V19.9878H230.299V2.14429H236.414C237.904 2.14429 239.315 2.68735 240.413 3.6959C241.51 4.62687 242.059 6.02332 242.059 7.49735C242.059 8.97139 241.51 10.2903 240.413 11.2988C239.315 12.3074 237.982 12.8504 236.414 12.8504L232.651 12.7728ZM232.651 4.31655V10.523H236.571C237.433 10.523 238.296 10.2127 238.845 9.59203C240.099 8.42832 240.099 6.4888 238.923 5.32509L238.845 5.24751C238.217 4.62687 237.433 4.23897 236.571 4.31655H232.651Z" fill="white"></path>
<path d="M247.47 7.41943C249.195 7.41943 250.528 7.88492 251.547 8.81589C252.566 9.74685 253.037 10.9881 253.037 12.5398V19.9875H250.842V18.2807H250.763C249.822 19.6772 248.489 20.3754 246.921 20.3754C245.589 20.3754 244.413 19.9875 243.472 19.2117C242.609 18.4359 242.061 17.3498 242.061 16.186C242.061 14.9448 242.531 13.9362 243.472 13.1604C244.413 12.3846 245.745 12.0743 247.313 12.0743C248.725 12.0743 249.822 12.307 250.685 12.8501V12.307C250.685 11.5312 250.371 10.7554 249.744 10.2899C249.117 9.74685 248.333 9.43653 247.47 9.43653C246.137 9.43653 245.118 9.9796 244.413 11.0657L242.374 9.82443C243.629 8.19524 245.275 7.41943 247.47 7.41943ZM244.491 16.2636C244.491 16.8843 244.805 17.4273 245.275 17.7377C245.824 18.1256 246.451 18.3583 247.078 18.3583C248.019 18.3583 248.96 17.9704 249.665 17.2722C250.449 16.574 250.842 15.7206 250.842 14.7896C250.136 14.2465 249.117 13.9362 247.784 13.9362C246.843 13.9362 246.059 14.169 245.432 14.6344C244.805 15.0223 244.491 15.5654 244.491 16.2636Z" fill="white"></path>
<path d="M265.737 7.80737L257.975 25.4182H255.623L258.524 19.2893L253.428 7.88495H255.937L259.621 16.6516H259.7L263.306 7.88495H265.737V7.80737Z" fill="white"></path>
<path d="M213.365 21.1925C216.187 21.1925 218.539 20.2615 220.264 18.7099L216.893 16.1497C215.952 16.7704 214.776 17.1583 213.365 17.1583C210.699 17.1583 208.347 15.3739 207.563 12.8914H204.113V15.5291C205.917 19.0202 209.445 21.1925 213.365 21.1925Z" fill="white"></path>
<path d="M207.563 12.9281C207.093 11.6868 207.093 10.2904 207.563 8.97148V6.33374H204.113C202.624 9.20422 202.624 12.6178 204.113 15.5658L207.563 12.9281Z" fill="white"></path>
<path d="M213.364 4.74516C214.854 4.74516 216.265 5.28822 217.363 6.29677L220.342 3.3487C218.46 1.64193 215.952 0.63338 213.443 0.710961C209.523 0.710961 205.916 2.88322 204.191 6.37435L207.641 9.01209C208.347 6.52951 210.699 4.74516 213.364 4.74516Z" fill="white"></path>
<line x1="190.35" y1="0.854736" x2="190.35" y2="22.1924" stroke="white"></line>
</svg>